<?xml version="1.0" standalone="no"?>
<!DOCTYPE svg PUBLIC "-//W3C//DTD SVG 20010904//EN"
 "http://www.w3.org/TR/2001/REC-SVG-20010904/DTD/svg10.dtd">
<svg version="1.0" xmlns="http://www.w3.org/2000/svg"
 width="115.000000pt" height="115.000000pt" viewBox="0 0 115.000000 115.000000"
 preserveAspectRatio="xMidYMid meet">
<metadata>
Created by potrace 1.14, written by Peter Selinger 2001-2017
</metadata>
<g transform="translate(0.000000,115.000000) scale(0.100000,-0.100000)"
fill="#000000" stroke="none">
<path d="M503 1011 c-43 -89 -142 -254 -163 -271 -25 -21 -36 -58 -29 -98 9
-50 29 -94 46 -99 6 -2 21 17 33 44 19 43 122 203 168 262 l19 24 45 -69 c41
-63 49 -71 100 -88 l55 -18 -1 -72 c-1 -50 5 -91 21 -138 12 -37 25 -88 28
-112 6 -38 12 -46 36 -55 38 -13 44 -1 36 82 -14 150 -40 212 -181 437 -50 80
-107 175 -126 211 l-35 65 -52 -105z"/>
<path d="M291 923 c-1 -30 -4 -33 -33 -33 -35 0 -34 -8 3 -13 17 -3 25 -12 29
-33 l6 -29 7 33 c6 28 11 32 39 33 l33 2 -35 6 c-29 5 -36 11 -41 36 l-7 30
-1 -32z"/>
<path d="M268 795 c-4 -4 -4 -13 -1 -21 3 -10 -2 -14 -18 -14 l-24 -1 25 -14
c14 -7 24 -16 22 -19 -2 -4 -1 -12 2 -19 3 -8 5 -7 5 3 -3 35 1 42 21 37 11
-3 18 -1 14 4 -3 5 -11 9 -19 9 -7 0 -15 9 -17 21 -2 11 -6 18 -10 14z"/>
<path d="M608 700 c-26 -14 -30 -24 -30 -80 0 -69 3 -102 9 -97 3 4 17 -3 30
-15 12 -12 24 -20 25 -17 2 2 1 54 -2 114 l-5 111 -27 -16z"/>
<path d="M658 707 c-3 -10 -3 -98 1 -220 1 -20 16 -44 49 -79 l49 -51 -1 164
-1 163 -47 18 c-34 12 -47 14 -50 5z"/>
<path d="M253 593 c-118 -211 -60 -439 136 -536 58 -28 75 -32 146 -31 62 0
92 6 135 25 l55 24 -95 6 c-196 14 -299 82 -315 210 -5 37 -4 40 5 20 6 -14
20 -40 32 -59 l21 -34 19 31 c11 17 22 57 25 90 5 50 2 65 -17 96 -12 20 -33
46 -46 58 -13 12 -36 48 -51 80 l-29 58 -21 -38z"/>
<path d="M505 570 c1 -22 -2 -40 -7 -40 -4 0 -8 16 -8 35 0 33 -1 34 -25 23
-26 -12 -27 -13 -27 -78 0 -22 1 -61 1 -87 l1 -48 26 29 c21 22 27 39 27 72 0
24 4 44 9 44 5 0 8 -8 7 -17 -5 -52 1 -56 29 -21 25 31 29 52 23 99 -1 5 -46
29 -55 29 -1 0 -2 -18 -1 -40z"/>
<path d="M520 439 c-57 -62 -66 -78 -77 -131 -7 -33 -18 -67 -25 -75 -11 -13
-6 -22 31 -54 24 -22 41 -39 38 -39 -12 0 -62 24 -92 44 l-30 20 18 -21 c9
-11 41 -33 70 -49 44 -24 65 -28 141 -31 93 -3 116 5 116 37 0 10 7 23 15 30
11 9 13 23 9 52 -6 31 -2 45 15 69 l23 30 -66 67 c-35 37 -75 79 -88 95 -13
15 -26 27 -28 26 -3 0 -34 -32 -70 -70z"/>
<path d="M770 288 c-21 -23 -23 -60 -6 -99 5 -12 1 -18 -13 -22 -27 -7 -34
-27 -22 -60 7 -19 18 -27 35 -27 39 0 65 49 40 75 -14 14 -13 15 8 11 32 -5
64 12 77 41 16 34 14 47 -10 77 -27 34 -79 36 -109 4z"/>
</g>
</svg>
